# xmcd CD database file
#
# Track frame offsets:
#	150
#	15398
#	68629
#	84978
#	100564
#	118524
#	185419
#	202876
#	220585
#	241993
#	256800
#	265424
#
# Disc length: 3980 seconds
#
# Revision: 0
# Processed by: cddbd v1.4PL0 Copyright (c) Steve Scherf et al.
# Submitted via: CDex 1.50Beta7
#
DISCID=900f8a0c
DTITLE=Wim Mertens - Antology CD 1
DYEAR=2002
DGENRE=Jazz
TTITLE0=Close Cover
TTITLE1=Maximizing The Audience
TTITLE2=Their Duet
TTITLE3=Hufhuf
TTITLE4=No Testament
TTITLE5=You See
TTITLE6=As Hay In The Sun
TTITLE7=Naviamente
TTITLE8=Comme En Dormant
TTITLE9=Mains
TTITLE10=The Scene
TTITLE11=Mem
EXTD=YEAR: 2002
EXTT0=
EXTT1=
EXTT2=
EXTT3=
EXTT4=
EXTT5=
EXTT6=
EXTT7=
EXTT8=
EXTT9=
EXTT10=
EXTT11=
PLAYORDER=
